<svg width="1080" height="1080" viewBox="0 0 1080 1080" fill="none" xmlns="http://www.w3.org/2000/svg">
<rect width="1080" height="1080" fill="black"/>
<path d="M628.921 262.671V272.226H564.504V262.671C579.428 262.456 585.118 262.885 585.118 258.161C585.118 256.551 584.581 254.296 583.4 251.398L573.738 227.885H519.949L513.186 242.487C511.468 246.352 510.502 251.29 510.502 253.76C510.502 261.06 516.406 262.778 528.86 262.778H531.115V272.333H475.072V262.778H477.542C489.459 262.778 493.109 258.483 498.155 247.103L547.219 133.3H557.419L610.67 253.652C614.32 261.812 616.79 262.456 628.921 262.671ZM523.6 217.579H569.98L546.468 163.468L523.6 217.579Z" fill="white"/>
<path d="M704.074 432.088V441.643H639.657V432.088C654.58 431.873 660.27 432.302 660.27 427.578C660.27 425.968 659.734 423.713 658.553 420.815L648.89 397.302H595.102L588.445 411.796C586.728 415.661 585.761 420.6 585.761 423.069C585.761 430.37 591.666 432.088 604.12 432.088H606.375V441.643H550.332V432.088H552.801C564.719 432.088 568.369 427.793 573.415 416.413L622.479 302.609H632.678L685.93 422.962C689.473 431.229 691.942 431.873 704.074 432.088ZM598.752 386.996H645.132L621.62 332.885L598.752 386.996Z" fill="white"/>
<path d="M556.668 432.088V441.643H492.251V432.088C507.174 431.873 512.864 432.302 512.864 427.578C512.864 425.968 512.327 423.713 511.146 420.815L501.484 397.302H447.696L441.039 411.796C439.321 415.661 438.355 420.6 438.355 423.069C438.355 430.37 444.26 432.088 456.714 432.088H458.969V441.643H402.926V432.088H405.395C417.312 432.088 420.963 427.793 426.009 416.413L475.073 302.609H485.272L538.524 422.962C542.066 431.229 544.536 431.873 556.668 432.088ZM451.346 386.996H497.726L474.214 332.885L451.346 386.996Z" fill="white"/>
<path d="M486.773 601.504V611.059H422.356V601.504C437.279 601.289 442.969 601.719 442.969 596.995C442.969 595.384 442.433 593.13 441.252 590.231L431.589 566.719H377.801L371.145 581.213C369.427 585.078 368.46 590.016 368.46 592.486C368.46 599.786 374.365 601.504 386.819 601.504H389.074V611.059H332.816V601.504H335.286C347.203 601.504 350.853 597.21 355.899 585.829L404.963 472.026H415.163L468.414 592.378C472.172 600.753 474.641 601.289 486.773 601.504ZM381.451 556.412H427.831L404.319 502.302L381.451 556.412Z" fill="white"/>
<path d="M775.793 601.504V611.059H711.376V601.504C726.299 601.289 731.989 601.719 731.989 596.995C731.989 595.384 731.452 593.13 730.271 590.231L720.609 566.719H666.713L660.057 581.213C658.339 585.078 657.373 590.016 657.373 592.486C657.373 599.786 663.278 601.504 675.732 601.504H677.986V611.059H621.943V601.504H624.413C636.33 601.504 639.98 597.21 645.026 585.829L694.09 472.026H704.29L757.541 592.378C761.191 600.753 763.661 601.289 775.793 601.504ZM670.471 556.412H716.851L693.339 502.302L670.471 556.412Z" fill="white"/>
<path d="M411.084 771.028V780.584H346.667V771.028C361.59 770.814 367.28 771.243 367.28 766.519C367.28 764.909 366.743 762.654 365.562 759.755L355.9 736.243H302.112L295.455 750.737C293.737 754.602 292.771 759.541 292.771 762.01C292.771 769.311 298.676 771.028 311.13 771.028H313.385V780.584H257.342V771.028H259.811C271.728 771.028 275.379 766.734 280.425 755.354L329.489 641.55H339.688L392.94 761.903C396.375 770.17 398.844 770.814 411.084 771.028ZM305.655 725.937H352.035L328.523 671.826L305.655 725.937Z" fill="white"/>
<path d="M556.668 771.028V780.584H492.251V771.028C507.174 770.814 512.864 771.243 512.864 766.519C512.864 764.909 512.327 762.654 511.146 759.755L501.484 736.243H447.696L441.039 750.737C439.321 754.602 438.355 759.541 438.355 762.01C438.355 769.311 444.26 771.028 456.714 771.028H458.969V780.584H402.926V771.028H405.395C417.312 771.028 420.963 766.734 426.009 755.354L475.073 641.55H485.272L538.524 761.903C542.066 770.17 544.536 770.814 556.668 771.028ZM451.346 725.937H497.726L474.214 671.826L451.346 725.937Z" fill="white"/>
<path d="M702.357 771.028V780.584H637.94V771.028C652.863 770.814 658.554 771.243 658.554 766.519C658.554 764.909 658.017 762.654 656.836 759.755L647.173 736.243H593.385L586.729 750.737C585.011 754.602 584.045 759.541 584.045 762.01C584.045 769.311 589.949 771.028 602.403 771.028H604.658V780.584H548.615V771.028H551.085C563.002 771.028 566.652 766.734 571.698 755.354L620.762 641.55H630.962L684.213 761.903C687.756 770.17 690.225 770.814 702.357 771.028ZM597.035 725.937H643.416L619.903 671.826L597.035 725.937Z" fill="white"/>
<path d="M848.045 771.028V780.584H783.628V771.028C798.551 770.814 804.241 771.243 804.241 766.519C804.241 764.909 803.704 762.654 802.523 759.755L792.861 736.243H739.073L732.416 750.737C730.698 754.602 729.732 759.541 729.732 762.01C729.732 769.311 735.637 771.028 748.091 771.028H750.346V780.584H694.303V771.028H696.772C708.689 771.028 712.339 766.734 717.385 755.354L766.45 641.55H776.649L829.9 761.903C833.443 770.17 835.913 770.814 848.045 771.028ZM742.723 725.937H789.103L765.483 671.826L742.723 725.937Z" fill="white"/>
<path d="M337.65 940.445V950H273.233V940.445C288.156 940.23 293.847 940.66 293.847 935.936C293.847 934.325 293.31 932.071 292.129 929.172L282.466 905.66H228.678L222.022 920.154C220.304 924.019 219.338 928.957 219.338 931.427C219.338 938.727 225.242 940.445 237.696 940.445H239.951V950H183.908V940.445H186.378C198.295 940.445 201.945 936.15 206.991 924.77L256.055 810.967H266.255L319.506 931.319C323.049 939.586 325.518 940.23 337.65 940.445ZM232.328 895.353H278.709L255.196 841.243L232.328 895.353Z" fill="white"/>
<path d="M924.595 940.445V950H860.178V940.445C875.102 940.23 880.792 940.66 880.792 935.936C880.792 934.325 880.255 932.071 879.074 929.172L869.411 905.66H815.623L808.967 920.154C807.249 924.019 806.283 928.957 806.283 931.427C806.283 938.727 812.188 940.445 824.642 940.445H826.896V950H770.854V940.445H773.323C785.24 940.445 788.89 936.15 793.936 924.77L843.001 810.967H853.2L906.451 931.319C909.994 939.586 912.464 940.23 924.595 940.445ZM819.274 895.353H865.654L842.142 841.243L819.274 895.353Z" fill="white"/>
</svg>
