<svg width="875" height="1003" viewBox="0 0 875 1003" fill="none" xmlns="http://www.w3.org/2000/svg">
<path d="M664.19 810.834C674.892 807.624 682.978 806.791 686.546 809.883C687.973 811.072 689.043 812.856 689.756 815.115C709.734 805.483 714.609 760.653 721.149 739.487C728.284 716.18 874.546 681.814 863.963 633.06C856.71 599.527 697.01 603.57 683.93 565.042C672.038 529.844 802.604 438.281 787.621 403.44C771.925 367.171 616.268 400.348 599.145 369.312C577.503 330.308 679.292 206.639 658.72 184.878C623.522 148.015 609.728 221.622 592.01 274.182C600.334 249.448 608.42 205.331 609.134 185.711C609.966 159.193 458.947 170.609 449.791 153.248C438.256 131.368 516.025 7.93639 495.81 0.325983C474.406 -7.76007 450.623 137.194 429.219 145.28C409.004 152.891 295.323 58.9499 283.789 80.8298C274.514 98.31 415.187 153.723 416.138 180.241C416.852 199.98 416.852 200.099 425.176 224.833C407.458 172.274 359.06 254.918 323.862 291.781C303.171 313.423 157.385 255.275 135.743 294.278C118.619 325.314 240.505 428.292 224.927 464.68C209.944 499.521 51.6713 480.138 39.6611 515.336C26.5807 553.745 164.876 632.584 157.622 665.999C151.915 692.159 105.182 717.726 64.1571 739.368C79.3779 722.007 96.1446 703.218 113.387 687.403C94.3609 704.883 73.6701 725.931 59.0439 742.103C25.8673 759.583 -2.1961 774.328 1.01454 784.673C6.3656 802.391 25.0349 783.841 50.1254 755.421C47.3904 777.182 91.2692 824.39 118.619 858.399C122.543 849.481 126.943 843.059 132.056 840.681C152.985 830.93 258.46 945.562 280.221 926.893C290.805 917.856 263.93 872.907 242.407 832.238C287.832 838.184 345.148 846.27 350.261 833.903C350.736 832.714 350.261 831.049 348.953 829.147C317.322 826.412 258.222 808.218 227.543 802.629C219.814 785.268 215.771 771.355 220.289 765.172C225.165 758.632 244.31 760.415 268.33 764.815C244.785 746.978 226.116 730.925 229.208 724.147C236.105 709.164 383.437 759.94 391.523 743.649C396.756 733.184 401.631 723.552 406.982 713.445C406.15 749.951 374.638 856.14 390.81 859.113C408.409 862.323 426.841 709.877 444.559 706.667C447.175 706.191 450.98 708.332 455.736 712.256C455.498 711.423 455.38 710.71 455.498 710.115C456.45 695.132 598.907 647.448 588.799 627.709C596.767 643.405 605.447 661.004 612.701 676.225C618.528 688.592 543.137 737.822 509.247 767.431C502.35 761.367 495.453 755.302 488.913 749.356C494.383 756.253 500.091 763.507 505.68 770.523C496.999 778.371 492.005 784.673 493.432 787.765C495.334 792.165 506.512 792.522 522.089 790.976C530.057 800.727 537.429 809.169 543.375 814.758C527.203 834.379 516.144 850.789 521.257 857.686C522.565 859.469 524.468 860.54 527.084 861.015C549.796 839.492 611.393 797.397 630.776 773.258C645.045 771.593 655.034 771.593 656.342 775.042C662.525 790.262 587.135 832.476 549.558 857.805C581.784 848.054 632.44 820.704 663.001 811.191C659.671 808.099 656.223 804.77 652.418 801.321C656.461 805.245 660.385 808.456 664.19 810.834ZM406.031 681.933C398.539 680.863 414.83 614.628 423.868 569.679C424.7 570.631 425.532 571.582 426.603 572.533C419.706 618.196 412.69 683.003 406.031 681.933ZM293.183 579.311C292.588 574.317 296.988 551.605 302.101 531.509C321.246 532.935 357.752 538.405 389.383 541.973C349.666 559.096 294.015 586.446 293.183 579.311ZM426.365 556.361C427.078 552.318 427.673 548.513 428.149 545.183C429.1 545.183 430.051 545.302 431.121 545.302C430.527 548.275 429.932 551.486 429.219 555.053C428.267 555.529 427.316 556.005 426.365 556.361ZM336.11 396.305C337.537 392.5 355.255 395.235 378.324 400.11C373.806 410.456 371.546 418.423 372.973 422.228C374.519 426.033 401.512 420.087 432.667 412.715C463.822 419.969 490.815 425.914 492.361 422.109C493.907 418.304 491.529 410.337 487.01 400.11C509.96 395.235 527.678 392.5 529.105 396.305C531.603 402.726 472.86 433.049 432.667 456.237C392.475 432.93 333.613 402.726 336.11 396.305ZM312.209 459.566C314.23 453.978 361.795 465.036 404.009 474.074C398.658 477.998 395.804 480.971 396.399 482.635C397.588 485.846 412.571 483.943 432.786 480.019C452.763 483.825 467.628 485.727 468.817 482.517C469.411 480.852 466.557 477.998 461.325 474.074C503.539 464.917 550.985 453.74 553.007 459.448C556.217 468.128 468.46 508.558 432.667 529.963C397.231 508.677 308.998 468.366 312.209 459.566ZM336.348 709.759C368.098 702.862 398.302 696.559 404.485 701.672C405.198 702.267 405.674 703.218 406.15 704.526C392.356 709.045 364.411 709.64 336.348 709.759ZM550.391 806.078C546.229 801.202 540.402 795.495 533.862 789.311C545.04 787.765 557.525 785.625 570.249 783.246C563.471 791.095 556.693 798.705 550.391 806.078Z" fill="white"/>
<path d="M873.596 836.522C869.672 826.533 822.583 840.089 778.229 849.483C814.973 851.505 885.844 867.32 873.596 836.522Z" fill="white"/>
<path d="M348.834 829.031C360.012 829.982 367.741 829.15 369.763 824.988C376.303 811.313 384.151 794.427 392.356 776.471C384.745 793.119 316.846 773.499 268.33 764.58C300.08 788.838 340.748 816.307 348.834 829.031Z" fill="white"/>
<path d="M75.2166 1002.05C82.1135 1003.36 87.7024 984.091 93.2913 958.406C75.3355 980.881 62.1362 999.55 75.2166 1002.05Z" fill="white"/>
<path d="M139.546 894.429C141.924 888.959 132.292 875.284 118.617 858.398C107.915 882.657 100.424 925.822 93.2891 958.523C110.412 937 131.936 912.147 139.546 894.429Z" fill="white"/>
<path d="M763.48 849.837C761.934 850.075 760.15 851.383 758.129 853.405C764.669 852.215 771.328 850.907 778.106 849.48C772.161 849.124 767.166 849.124 763.48 849.837Z" fill="white"/>
<path d="M455.617 712.018C457.758 719.747 471.789 733.66 488.794 749.118C476.189 733.541 464.417 719.509 455.617 712.018Z" fill="white"/>
<path d="M689.876 815.117C683.217 818.327 674.893 817.614 664.191 810.836C663.715 810.955 663.239 811.074 662.764 811.312C673.941 821.895 682.265 830.338 690.589 839.494C691.778 829.148 691.778 820.706 689.876 815.117Z" fill="white"/>
<path d="M526.848 860.897C520.784 866.604 517.573 870.885 518.524 873.026C537.313 910.721 536.124 899.305 528.751 876.355C527.8 873.382 536.361 866.723 549.323 857.924C539.929 860.659 532.08 862.086 526.848 860.897Z" fill="white"/>
<path d="M700.219 850.434C696.89 846.51 693.679 842.942 690.587 839.375C684.999 887.297 653.13 973.984 669.421 981.476C696.295 993.724 736.726 875.643 758.13 853.288C731.137 858.044 707.949 859.471 700.219 850.434Z" fill="white"/>
</svg>
