<svg width="1080" height="1080" viewBox="0 0 1080 1080" fill="none" xmlns="http://www.w3.org/2000/svg">
<rect width="1080" height="1080" fill="black"/>
<path d="M126.498 540.444C126.498 422.577 172.739 319.009 247.689 244.109C322.589 169.167 425.024 124 539.619 124C654.214 124 757.731 169.167 832.631 244.109C907.573 319.009 953.822 422.568 953.822 540.436C953.822 658.304 907.582 761.863 832.631 836.763C757.731 911.663 654.172 956.83 539.619 956.83C425.066 956.83 322.589 911.663 247.681 836.763C172.739 761.872 126.498 658.312 126.498 540.444ZM894.347 540.444C894.347 446.796 857.976 355.347 796.302 288.159C734.586 220.972 645.377 178.004 539.619 178.004C433.861 178.004 344.61 220.972 282.936 288.159C221.22 355.347 184.891 446.796 184.891 540.444C184.891 634.093 221.22 726.625 282.936 792.73C344.61 859.917 433.861 903.959 539.619 903.959C645.377 903.959 734.586 859.917 796.302 792.73C857.976 726.616 894.347 636.291 894.347 540.444ZM746.695 612.021C734.586 722.219 657.487 789.406 544.016 789.406C476.829 789.406 422.825 765.187 385.379 721.102C347.925 677.061 325.904 613.146 325.904 537.121C325.904 461.096 346.809 401.63 386.496 357.537C425.024 314.611 480.102 290.349 546.207 290.349C600.21 290.349 648.65 307.973 683.897 337.715C719.152 368.573 742.289 411.541 746.687 463.295H665.191C653.081 391.71 612.312 352.066 546.198 352.066C503.23 352.066 469.1 370.772 443.755 402.704C418.411 434.686 404.06 480.927 404.06 537.121C404.06 652.79 460.262 726.616 543.991 726.616C610.105 726.616 653.073 683.648 665.182 612.021H746.678H746.695Z" fill="white"/>
</svg>
