<svg width="702" height="855" viewBox="0 0 702 855" fill="none" xmlns="http://www.w3.org/2000/svg">
<path d="M701.611 271.474H600.945C594.992 242.519 584.573 217.082 569.69 195.163C555.077 173.243 537.217 154.842 516.109 139.958C495.272 124.804 472.135 113.439 446.698 105.862C421.261 98.2846 394.741 94.4961 367.139 94.4961C316.806 94.4961 271.208 107.215 230.346 132.652C189.755 158.089 157.417 195.569 133.333 245.09C109.519 294.611 97.6125 355.363 97.6125 427.345C97.6125 499.327 109.519 560.079 133.333 609.6C157.417 659.121 189.755 696.601 230.346 722.038C271.208 747.475 316.806 760.194 367.139 760.194C394.741 760.194 421.261 756.405 446.698 748.828C472.135 741.251 495.272 730.021 516.109 715.137C537.217 699.983 555.077 681.447 569.69 659.527C584.573 637.337 594.992 611.9 600.945 583.216H701.611C694.034 625.701 680.233 663.722 660.208 697.277C640.183 730.833 615.287 759.382 585.52 782.925C555.753 806.197 522.333 823.922 485.26 836.1C448.457 848.277 409.083 854.366 367.139 854.366C296.239 854.366 233.188 837.047 177.983 802.409C122.779 767.771 79.3464 718.52 47.6852 654.656C16.024 590.793 0.193359 515.022 0.193359 427.345C0.193359 339.668 16.024 263.897 47.6852 200.034C79.3464 136.17 122.779 86.9191 177.983 52.2811C233.188 17.6432 296.239 0.324219 367.139 0.324219C409.083 0.324219 448.457 6.41292 485.26 18.5903C522.333 30.7677 555.753 48.6279 585.52 72.1709C615.287 95.4432 640.183 123.857 660.208 157.413C680.233 190.698 694.034 228.718 701.611 271.474Z" fill="white"/>
</svg>
