<svg width="979" height="985" viewBox="0 0 979 985" fill="none" xmlns="http://www.w3.org/2000/svg">
<path d="M0 492.45C0 353.07 54.68 230.6 143.31 142.03C231.88 53.41 353.01 0 488.52 0C624.03 0 746.44 53.41 835.01 142.03C923.63 230.6 978.32 353.06 978.32 492.44C978.32 631.82 923.64 754.28 835.01 842.85C746.44 931.42 623.98 984.83 488.52 984.83C353.06 984.83 231.88 931.42 143.3 842.85C54.68 754.29 0 631.83 0 492.45ZM907.99 492.45C907.99 381.71 864.98 273.57 792.05 194.12C719.07 114.67 613.58 63.86 488.52 63.86C363.46 63.86 257.92 114.67 184.99 194.12C112.01 273.57 69.05 381.71 69.05 492.45C69.05 603.19 112.01 712.61 184.99 790.78C257.92 870.23 363.46 922.31 488.52 922.31C613.58 922.31 719.07 870.23 792.05 790.78C864.98 712.6 907.99 605.79 907.99 492.45ZM733.39 577.09C719.07 707.4 627.9 786.85 493.72 786.85C414.27 786.85 350.41 758.21 306.13 706.08C261.84 654 235.8 578.42 235.8 488.52C235.8 398.62 260.52 328.3 307.45 276.16C353.01 225.4 418.14 196.71 496.31 196.71C560.17 196.71 617.45 217.55 659.13 252.72C700.82 289.21 728.18 340.02 733.38 401.22H637.01C622.69 316.57 574.48 269.69 496.3 269.69C445.49 269.69 405.13 291.81 375.16 329.57C345.19 367.39 328.22 422.07 328.22 488.52C328.22 625.3 394.68 712.6 493.69 712.6C571.87 712.6 622.68 661.79 637 577.09H733.37H733.39Z" fill="white"/>
</svg>
