<svg width="1080" height="1080" viewBox="0 0 1080 1080" fill="none" xmlns="http://www.w3.org/2000/svg">
<g clip-path="url(#clip0_396_878)">
<path d="M160 400V360H80V400H120V440H200V400H160ZM160 520V480H80V520H120V560H200V520H160ZM120 640V680H80V720H160V680H200V640H120ZM40 560H80V520H40V560ZM560 480H520V520H560V480ZM560 400H520V440H560V400ZM480 440V480H520V440H480ZM600 480V440H560V480H600ZM520 680H560V640H520V680ZM520 600H560V560H520V600ZM480 520H400V560H520V520H480ZM640 520H560V560H680V520H640ZM480 600V640H520V600H480ZM600 640V600H560V640H600ZM360 520H400V440H320V480H280V440H200V520H240V560H200V640H280V600H320V640H400V560H360V520ZM320 560H280V520H320V560ZM400 80H480V40H440V0H360V40H400V80ZM200 0H120V40H80V80H40V120H160V80H200V40H240V0H200ZM0 40V80H40V40H0ZM320 400H360V360H400V320H360V280H320V160H360V120H320V80H280V120H240V160H280V280H240V320H200V360H240V400H280V440H320V400ZM280 320H320V360H280V320ZM240 40V80H280V40H240ZM360 40H320V80H360V40ZM400 1080H440V1040H480V1000H400V1040H360V1080H400ZM200 1000H160V960H40V1000H80V1040H120V1080H240V1040H200V1000ZM0 1040H40V1000H0V1040ZM280 680H240V720H200V760H240V800H280V920H240V960H280V1000H320V960H360V920H320V800H360V760H400V720H360V680H320V640H280V680ZM320 760H280V720H320V760ZM240 1040H280V1000H240V1040ZM360 1040V1000H320V1040H360ZM960 440V400H1000V360H920V400H880V440H960ZM920 560H960V520H1000V480H920V520H880V560H920ZM920 680V720H1000V680H960V640H880V680H920ZM1040 560V520H1000V560H1040ZM760 480V440H680V520H720V560H680V640H760V600H800V640H880V560H840V520H880V440H800V480H760ZM800 560H760V520H800V560ZM680 0H640V40H600V80H680V40H720V0H680ZM960 120H1040V80H1000V40H960V0H840V40H880V80H920V120H960ZM1080 40H1040V80H1080V40ZM760 120H720V160H760V280H720V320H680V360H720V400H760V440H800V400H840V360H880V320H840V280H800V160H840V120H800V80H760V120ZM800 360H760V320H800V360ZM800 80H840V40H800V80ZM720 40V80H760V40H720ZM680 1000H600V1040H640V1080H720V1040H680V1000ZM880 1080H960V1040H1000V1000H1040V960H920V1000H880V1040H840V1080H880ZM1080 1040V1000H1040V1040H1080ZM760 680H720V720H680V760H720V800H760V920H720V960H760V1000H800V960H840V920H800V800H840V760H880V720H840V680H800V640H760V680ZM800 760H760V720H800V760ZM840 1040V1000H800V1040H840ZM720 1040H760V1000H720V1040Z" fill="white"/>
</g>
<defs>
<clipPath id="clip0_396_878">
<rect width="1080" height="1080" fill="none"/>
</clipPath>
</defs>
</svg>
