<svg width="703" height="832" viewBox="0 0 703 832" fill="none" xmlns="http://www.w3.org/2000/svg">
<path d="M676.043 769.234C676.676 761.677 674.603 753.873 669.627 747.394C658.996 733.533 639.151 730.909 625.301 741.547L624.587 740.61C638.449 729.983 641.06 710.123 630.441 696.251C619.81 682.39 599.965 679.777 586.114 690.404L585.4 689.479C599.251 678.84 601.873 658.992 591.242 645.119C580.623 631.258 560.778 628.646 546.928 639.273L546.213 638.347C560.064 627.708 562.686 607.849 552.056 593.988C541.436 580.127 521.591 577.502 507.741 588.141L507.027 587.216C520.877 576.577 523.488 556.717 512.869 542.856C502.238 528.996 482.393 526.371 468.542 537.01L467.828 536.072C478.623 527.8 482.592 513.916 478.81 501.637C489.488 493.564 494.241 479.211 489.57 465.89C489.348 465.257 489.102 464.648 488.844 464.038C489.172 463.874 489.511 463.699 489.839 463.535C490.272 464.238 490.729 464.941 491.221 465.62C497.403 474.162 507.062 478.696 516.85 478.696C523.277 478.696 529.764 476.739 535.372 472.674C549.503 462.41 552.664 442.632 542.408 428.49C541.87 427.752 541.308 427.049 540.722 426.381C540.98 426.123 541.237 425.854 541.483 425.596C542.209 426.182 542.97 426.744 543.755 427.271C549.129 430.857 555.217 432.579 561.235 432.579C571.456 432.579 581.489 427.623 587.578 418.461C597.248 403.92 593.303 384.283 578.773 374.605C578.001 374.09 577.216 373.621 576.42 373.187C576.572 372.848 576.713 372.508 576.865 372.168C577.591 372.426 578.34 372.66 579.101 372.859C581.817 373.586 584.557 373.926 587.238 373.926C601.229 373.937 614.014 364.576 617.773 350.422C622.257 333.538 612.223 316.209 595.34 311.71C594.673 311.534 594.005 311.382 593.338 311.253C593.385 310.878 593.432 310.503 593.478 310.128C593.994 310.163 594.521 310.199 595.047 310.21C595.34 310.21 595.621 310.21 595.914 310.21C612.972 310.21 627.034 296.596 627.49 279.419C627.959 261.949 614.19 247.421 596.733 246.952C596.206 246.94 595.68 246.94 595.164 246.952C595.141 246.577 595.118 246.19 595.082 245.816C595.703 245.722 596.335 245.628 596.956 245.499C614.073 242.043 625.149 225.347 621.695 208.228C618.229 191.099 601.557 180.015 584.452 183.483C583.796 183.612 583.152 183.776 582.508 183.94C582.391 183.577 582.274 183.225 582.157 182.862C582.836 182.581 583.515 182.264 584.182 181.936C599.754 174.039 605.994 155.011 598.103 139.417C590.224 123.833 571.21 117.588 555.627 125.485C554.924 125.837 554.257 126.224 553.601 126.622C553.39 126.317 553.168 126.013 552.945 125.708C553.543 125.216 554.128 124.7 554.69 124.161C567.264 112.046 567.651 92.0227 555.545 79.439C543.427 66.8436 523.418 66.4686 510.843 78.5836C510.211 79.1929 509.614 79.8373 509.029 80.4935C508.736 80.2708 508.443 80.0482 508.139 79.8256C508.537 79.1929 508.912 78.5485 509.263 77.8924C517.494 62.485 511.698 43.3165 496.302 35.0797C480.906 26.8312 461.752 32.6426 453.521 48.0383C453.205 48.6359 452.912 49.2451 452.631 49.8544C452.268 49.7138 451.917 49.5849 451.554 49.4443C451.741 48.8116 451.941 48.1906 452.093 47.5462C456.144 30.5453 445.653 13.4859 428.665 9.43191C411.688 5.38966 394.642 15.8761 390.591 32.8769C390.45 33.4511 390.333 34.0252 390.239 34.5876C389.853 34.5407 389.478 34.4821 389.092 34.4353C389.127 33.99 389.162 33.5448 389.174 33.0996C389.818 15.63 376.19 0.960766 358.745 0.328066C341.3 -0.31635 326.63 13.3218 325.998 30.7797C325.998 31.0726 325.998 31.3655 325.998 31.6584H324.815C324.815 14.1889 310.672 0.0234333 293.203 0.0234333C275.735 0.0234333 261.592 14.1889 261.592 31.6584H260.421C260.421 14.1889 246.278 0.0234333 228.821 0.0234333C211.365 0.0234333 197.21 14.1889 197.21 31.6584H196.039C196.039 14.1889 181.884 0.0234333 164.415 0.0234333C146.947 0.0234333 132.804 14.1889 132.804 31.6584H131.633C131.633 14.1889 117.49 0.0234333 100.021 0.0234333C82.5531 0.0234333 68.4098 14.1889 68.4098 31.6584H67.239C67.239 14.1654 53.0958 0 35.6392 0C18.1825 0 4.02755 14.1654 4.02755 31.635C4.02755 45.1677 12.5159 56.7204 24.458 61.243C10.4435 64.4885 0 77.0488 0 92.0578C0 109.527 14.155 123.693 31.6116 123.693V124.864C14.155 124.864 0 139.03 0 156.499C0 173.969 14.155 188.134 31.6116 188.134V189.306C14.155 189.306 0 203.472 0 220.941C0 238.411 14.155 252.576 31.6116 252.576V253.748C14.155 253.748 0 267.913 0 285.383C0 302.852 14.155 317.018 31.6116 317.018V318.189C14.155 318.189 0 332.355 0 349.824C0 367.294 14.155 381.459 31.6116 381.459V382.631C14.155 382.631 0 396.796 0 414.266C0 431.736 14.155 445.901 31.6116 445.901V447.073C14.155 447.073 0 461.238 0 478.708C0 496.177 14.155 510.343 31.6116 510.343V511.514C14.155 511.514 0 525.68 0 543.149C0 560.619 14.155 574.784 31.6116 574.784V575.956C14.155 575.956 0 590.121 0 607.591C0 625.06 14.155 639.226 31.6116 639.226V640.398C14.155 640.398 0 654.563 0 672.032C0 689.502 14.155 703.667 31.6116 703.667V704.839C14.155 704.839 0 719.005 0 736.474C0 753.944 14.155 768.109 31.6116 768.109V768.742C14.4125 769.035 0.550276 783.071 0.550276 800.365C0.550276 817.659 14.7052 832 32.1619 832C49.6185 832 63.7735 817.835 63.7735 800.365H64.9443C64.9443 817.835 79.0992 832 96.5559 832C114.013 832 128.167 817.835 128.167 800.365H129.338C129.338 817.835 143.493 832 160.95 832C178.407 832 192.561 817.835 192.561 800.365H193.732C193.732 817.835 207.887 832 225.344 832C242.8 832 256.955 817.835 256.955 800.365C256.955 788.168 250.059 777.588 239.955 772.304C253.209 768.531 262.903 756.334 262.903 741.875C262.903 724.406 248.76 710.241 231.292 710.241V709.069C248.76 709.069 262.903 694.903 262.903 677.434C262.903 659.964 248.76 645.799 231.292 645.799V644.627C248.76 644.627 262.903 630.462 262.903 612.992C262.903 609.7 262.4 606.513 261.463 603.525C271.415 609.301 284.153 609.419 294.48 602.752L295.112 603.736C280.442 613.203 276.215 632.782 285.675 647.474C291.717 656.848 301.891 661.968 312.276 661.968C318.141 661.968 324.077 660.328 329.369 656.906L330.013 657.902C315.343 667.369 311.117 686.948 320.577 701.629C326.63 711.002 336.792 716.122 347.177 716.122C353.043 716.122 358.979 714.494 364.283 711.072L364.915 712.057C350.245 721.524 346.018 741.102 355.478 755.783C361.52 765.168 371.694 770.277 382.079 770.277C387.945 770.277 393.881 768.648 399.184 765.227L399.816 766.211C385.135 775.678 380.92 795.257 390.38 809.938C399.84 824.63 419.404 828.86 434.074 819.381C439.565 815.843 443.593 810.887 445.993 805.298C448.358 820.424 461.436 832 477.218 832C494.675 832 508.83 817.835 508.83 800.365H510C510 817.835 524.155 832 541.612 832C559.069 832 573.224 817.835 573.224 800.365H574.394C574.394 817.835 588.549 832 606.006 832C623.463 832 637.618 817.835 637.618 800.365H638.788C638.788 817.835 652.943 832 670.4 832C687.857 832 702.012 817.835 702.012 800.365C702.012 784.829 690.819 771.905 676.055 769.234H676.043ZM326.606 367.516C323.41 351.629 308.553 340.556 292.15 342.384C275.489 344.235 263.325 358.717 264.062 375.226H262.903C262.903 368.384 260.737 362.045 257.049 356.878C260.737 351.699 262.903 345.372 262.903 338.529C262.903 321.06 248.76 306.894 231.292 306.894V305.723C248.76 305.723 262.903 291.557 262.903 274.088C262.903 256.618 248.76 242.453 231.292 242.453V241.281C246.641 241.281 259.426 230.338 262.306 215.833C265.163 216.711 268.195 217.203 271.345 217.239C288.099 217.391 301.938 204.456 303.167 187.97C303.53 188.029 303.881 188.088 304.232 188.146C300.193 203.448 308.178 219.699 323.27 225.616C334.919 230.197 347.657 227.374 356.274 219.406C349.94 228.533 348.606 240.731 353.839 251.416C359.33 262.617 370.558 269.132 382.243 269.132C385.029 269.132 387.839 268.757 390.602 267.983C390.637 268.288 390.673 268.581 390.708 268.886C375.206 268.312 361.25 279.208 358.429 294.92C356.38 306.426 360.805 317.58 369.106 324.634C359.283 320.169 347.435 320.861 337.951 327.469C325.014 336.479 320.881 353.445 327.555 367.212C327.239 367.317 326.922 367.423 326.606 367.528V367.516ZM362.117 212.083C362.316 212.247 362.527 212.411 362.726 212.587C362.046 213.126 361.379 213.677 360.747 214.251C361.227 213.548 361.684 212.821 362.105 212.083H362.117ZM376.471 329.308C377.115 329.601 377.77 329.859 378.426 330.117C378.297 330.328 378.157 330.527 378.028 330.738C377.524 330.246 376.998 329.765 376.471 329.32V329.308ZM429.543 485.726C429.543 485.726 429.414 485.831 429.356 485.878L428.934 485.328C429.086 485.292 429.239 485.257 429.391 485.21C429.438 485.374 429.485 485.55 429.531 485.714L429.543 485.726ZM231.292 581.357V580.186C236.502 580.186 241.407 578.932 245.728 576.694C245.786 579.693 246.254 582.705 247.168 585.634C242.508 582.916 237.087 581.357 231.292 581.357Z" fill="white"/>
</svg>
