<svg width="1080" height="1080" viewBox="0 0 1080 1080" fill="none" xmlns="http://www.w3.org/2000/svg">
<rect width="1080" height="1080" fill="black"/>
<path d="M742.655 597.987C768.935 571.716 789.569 541.091 804.006 506.971C818.963 471.59 826.552 434.077 826.552 395.442C826.552 356.807 818.963 319.294 804.006 283.923C789.569 249.793 768.935 219.178 742.655 192.897C716.384 166.627 685.759 145.983 651.639 131.546C616.258 116.589 578.735 109 540.11 109C501.485 109 463.962 116.589 428.581 131.546C394.461 145.983 363.836 166.627 337.565 192.897C311.295 219.168 290.651 249.793 276.214 283.923C261.587 318.523 254.028 355.195 253.698 392.929C253.678 393.76 253.668 394.601 253.668 395.442V876.89C253.668 929.421 296.247 972 348.778 972C401.309 972 443.888 929.421 443.888 876.89V720.579L630.615 926.748C649.386 947.472 675.216 958.014 701.136 958.014C723.903 958.014 746.749 949.884 764.96 933.395C803.896 898.134 806.869 837.985 771.608 799.05L646.864 661.32C648.465 660.679 650.057 660.019 651.649 659.348C685.769 644.921 716.394 624.277 742.665 597.997L742.655 597.987ZM443.888 395.442C443.888 342.39 487.048 299.22 540.11 299.22C593.171 299.22 636.331 342.39 636.331 395.442C636.331 448.493 593.171 491.663 540.11 491.663C487.048 491.663 443.888 448.503 443.888 395.442Z" fill="white"/>
</svg>
