<svg xmlns="http://www.w3.org/2000/svg" height="48" viewBox="0 -960 960 960" width="48" fill="white"><path d="M451.616-103.078q-31.921 0-60.688-12.52-28.767-12.519-47.466-37.557L141.847-415.116l17.192-18.115q9.731-10.731 24.173-13.461 14.442-2.731 28.364 3.269l115.348 56.769V-726.37q0-8.623 6.426-14.972 6.426-6.348 15.692-6.348t15.592 6.506q6.327 6.506 6.327 15.362v408.09l-158.27-77.269 167.655 215.769q12.345 17.116 31.324 24.712 18.979 7.597 39.946 7.597h183.345q40.723 0 69.419-28.444 28.697-28.443 28.697-69.98v-156.961q0-26.692-18.033-44.673t-43.929-17.981H464.809v-43.845h206.088q43.542 0 74.784 31.062 31.241 31.063 31.241 75.437v156.958q0 59.618-41.579 100.945-41.58 41.327-100.382 41.327H451.616ZM215.859-649.422q-10.086-16.215-15.414-35.76-5.329-19.544-5.329-40.632 0-64.735 45.015-109.459 45.015-44.725 108.794-44.725 63.779 0 109.061 44.963 45.283 44.962 45.283 109.578 0 21.019-5.675 40.454-5.674 19.435-15.148 35.581l-38.099-21.516q6.884-12.137 10.98-26.054 4.097-13.917 4.097-29.375 0-45.753-32.253-77.769-32.252-32.016-78.327-32.016-46.075 0-77.979 31.982-31.904 31.982-31.904 78.481 0 14.86 3.75 28.737 3.75 13.877 11.327 25.954l-38.179 21.576Zm257.563 321.307Z"/></svg>